<svg width="104" height="36" viewBox="0 0 104 36" fill="none" xmlns="http://www.w3.org/2000/svg">
<path d="M13.2385 3.19212C13.0702 3.19212 12.9861 3.29203 12.9861 3.49185C12.9861 3.54181 12.9984 3.57427 13.0232 3.58926L14.8646 4.98301C15.622 5.56248 16.0007 6.33928 16.0007 7.31338C16.0007 8.12271 15.674 8.81204 15.0206 9.38153C14.3573 9.94605 13.6246 10.2283 12.8227 10.2283H7.13495V7.02866H10.8995C11.0679 7.02866 11.152 6.92625 11.152 6.72143C11.152 6.68647 11.1396 6.65649 11.1149 6.63151L9.39969 5.36516C8.73138 4.87061 8.39727 4.11629 8.39727 3.1022C8.39727 2.26795 8.719 1.54361 9.36254 0.92916C10.0061 0.30972 10.7412 0 11.5678 0H17.2704V3.19212H13.2385ZM22.6611 3.19212V10.2283H18.8594V3.19212H15.377V0H26.1436V3.19212H22.6611ZM30.8809 3.40943L30.1087 6.39173H31.6531L30.8809 3.40943ZM32.6555 10.2283L32.3214 8.94694H29.433L29.1062 10.2283H25.1783L27.8365 0H33.9178L36.5835 10.2283H32.6555ZM45.3304 10.2283C44.479 10.2283 43.635 9.80114 42.7984 8.94694L41.0237 7.15604V10.2283H37.222V4.72823H43.4295C43.6325 4.72823 43.8083 4.6533 43.9567 4.50344C44.1102 4.34858 44.1869 4.16874 44.1869 3.96392C44.1869 3.75911 44.1102 3.57927 43.9567 3.42441C43.8083 3.26955 43.6325 3.19212 43.4295 3.19212H37.222V0H44.4394C45.37 0 46.1967 0.342192 46.9194 1.02657C47.6322 1.71096 47.9886 2.51773 47.9886 3.44689C47.9886 4.14126 47.7857 4.78319 47.3798 5.37265C46.9788 5.95712 46.4566 6.37425 45.813 6.62402C45.9665 6.89378 46.1868 7.02866 46.4739 7.02866H48.6272V10.2283H45.3304Z" fill="#FFE81F"/>
<path d="M69.4299 10.2283H65.1159L64.2323 6.81135L63.3412 10.2283H59.0345L56.3763 0H60.3042L61.1878 3.40943L62.0789 0H66.3856L67.2692 3.40943L68.1602 0H72.088L69.4299 10.2283ZM76.4097 3.40943L75.6377 6.39173H77.1816L76.4097 3.40943ZM78.1845 10.2283L77.85 8.94694H74.9614L74.6348 10.2283H70.7071L73.3654 0H79.4467L82.1122 10.2283H78.1845ZM90.8591 10.2283C90.0075 10.2283 89.1639 9.80114 88.3268 8.94694L86.5527 7.15604V10.2283H82.7509V4.72823H88.9582C89.161 4.72823 89.337 4.6533 89.4854 4.50344C89.6389 4.34858 89.7157 4.16874 89.7157 3.96392C89.7157 3.75911 89.6389 3.57927 89.4854 3.42441C89.337 3.26955 89.161 3.19212 88.9582 3.19212H82.7509V0H89.9684C90.8989 0 91.7252 0.342192 92.4479 1.02657C93.1611 1.71096 93.5174 2.51773 93.5174 3.44689C93.5174 4.14126 93.3147 4.78319 92.9084 5.37265C92.5072 5.95712 91.9851 6.37425 91.3421 6.62402C91.4949 6.89378 91.7158 7.02866 92.0025 7.02866H94.1561V10.2283H90.8591ZM99.9478 3.19212C99.779 3.19212 99.695 3.29203 99.695 3.49185C99.695 3.54181 99.7074 3.57427 99.732 3.58926L101.573 4.98301C102.331 5.56248 102.71 6.33928 102.71 7.31338C102.71 8.12271 102.383 8.81204 101.73 9.38153C101.067 9.94605 100.334 10.2283 99.5321 10.2283H93.844V7.02866H97.6088C97.7768 7.02866 97.8608 6.92625 97.8608 6.72143C97.8608 6.68647 97.8485 6.65649 97.8239 6.63151L96.1091 5.36516C95.4407 4.87061 95.1062 4.11629 95.1062 3.1022C95.1062 2.26795 95.4284 1.54361 96.0715 0.92916C96.7152 0.30972 97.4502 0 98.2772 0H103.98V3.19212H99.9478Z" fill="#FFE81F"/>
<path d="M50.2639 15.5256V17.536H49.1777V15.5256H48.1828V14.6136H51.2589V15.5256H50.2639ZM53.4313 17.536V16.4591H52.5276V17.536H51.4414V14.6136H52.5276V15.6905H53.4313V14.6136H54.5175V17.536H53.4313ZM54.7 17.536V14.6136H57.5958V15.5256H55.7862V15.6905H56.8724V16.4591H55.7862V16.6218H57.5958V17.536H54.7Z" fill="white"/>
<path d="M7.60345 25.9827L6.57382 29.9591H8.63311L7.60345 25.9827ZM9.96965 35.0745L9.52409 33.366H5.67289L5.23727 35.0745H0L3.54431 21.4368H11.6527L15.2069 35.0745H9.96965ZM25.0181 35.0745H16.9098L13.3654 21.4368H18.6027L20.9689 30.5185L23.3351 21.4368H28.5723L25.0181 35.0745ZM34.3344 25.9827L33.3047 29.9591H35.3639L34.3344 25.9827ZM36.7005 35.0745L36.255 33.366H32.4037L31.9682 35.0745H26.7309L30.2752 21.4368H38.3836L41.9378 35.0745H36.7005ZM50.3629 25.6929V35.0745H45.294V25.6929H40.6507V21.4368H55.0062V25.6929H50.3629ZM61.3226 25.9827L60.293 29.9591H62.3523L61.3226 25.9827ZM63.6888 35.0745L63.2432 33.366H59.3921L58.9564 35.0745H53.7192L57.2635 21.4368H65.3718L68.9261 35.0745H63.6888ZM80.5887 35.0745C79.4532 35.0745 78.3279 34.505 77.2127 33.366L74.8462 30.9781V35.0745H69.7775V27.741H78.0542C78.325 27.741 78.5589 27.6411 78.7573 27.4414C78.9615 27.2348 79.0636 26.9951 79.0636 26.722C79.0636 26.4489 78.9615 26.2091 78.7573 26.0026C78.5589 25.7962 78.325 25.6929 78.0542 25.6929H69.7775V21.4368H79.4004C80.6415 21.4368 81.7437 21.893 82.7075 22.8055C83.6576 23.718 84.1326 24.7937 84.1326 26.0326C84.1326 26.9585 83.8625 27.8143 83.3208 28.6003C82.7864 29.3796 82.0905 29.9358 81.2324 30.2688C81.4366 30.6285 81.7306 30.8083 82.113 30.8083H84.9842V35.0745H80.5887ZM92.7064 25.6929C92.4819 25.6929 92.3697 25.8261 92.3697 26.0926C92.3697 26.1591 92.3863 26.2025 92.4196 26.2224L94.8745 28.0808C95.8846 28.8534 96.3894 29.8891 96.3894 31.1879C96.3894 32.267 95.9541 33.1861 95.083 33.9455C94.1981 34.6981 93.2212 35.0745 92.1524 35.0745H84.5685V30.8083H89.5882C89.8127 30.8083 89.925 30.6718 89.925 30.3987C89.925 30.3521 89.9083 30.3121 89.875 30.2788L87.5882 28.5903C86.6968 27.9309 86.2514 26.9251 86.2514 25.573C86.2514 24.4607 86.6808 23.4949 87.5389 22.6756C88.397 21.8497 89.3768 21.4368 90.4789 21.4368H98.0824V25.6929H92.7064Z" fill="#FF0911"/>
<path d="M5.89279 15.3438H43.0225L42.4971 16.8053H5.36737L5.89279 15.3438Z" fill="#FFE81F"/>
<path d="M63.0997 15.3438H100.229L99.7037 16.8053H62.5743L63.0997 15.3438Z" fill="#FFE81F"/>
</svg>
